<svg xmlns="http://www.w3.org/2000/svg" width="17" height="24" viewBox="0 0 17 24" fill="none">
  <path d="M9.58502 23.9989C10.1779 23.9989 10.6585 23.5183 10.6585 22.9255C10.6585 22.3326 10.1779 21.8521 9.58502 21.8521C8.99219 21.8521 8.5116 22.3326 8.5116 22.9255C8.5116 23.5183 8.99219 23.9989 9.58502 23.9989Z" fill="#87E64B"/>
  <path d="M15.7509 15.616L9.70311 16.2638C9.59249 16.276 9.5353 16.1344 9.62343 16.066L15.5418 11.4582C15.9262 11.1441 16.1709 10.6548 16.0659 10.1307C15.9609 9.32728 15.2971 8.80322 14.459 8.90822L8.02875 9.84946C7.91532 9.86634 7.85438 9.72103 7.94532 9.65165L14.3193 4.78513C15.5774 3.80733 15.6815 1.88547 14.5293 0.767982C13.4812 -0.280134 11.804 -0.245447 10.7559 0.802669L0.48382 11.2491C0.0994487 11.6682 -0.0749247 12.2269 0.0300743 12.8213C0.204448 13.7644 1.14756 14.3935 2.09162 14.2191L7.62844 13.0894C7.74844 13.0651 7.81407 13.2254 7.71 13.291L1.56662 17.2228C0.79788 17.7122 0.449133 18.585 0.692881 19.4588C0.937566 20.6119 2.09068 21.2756 3.20817 20.9962L12.3909 18.7341C12.494 18.7088 12.57 18.8288 12.5034 18.9113L11.069 20.6812C10.6847 21.1706 11.3137 21.8344 11.8378 21.45L16.5543 17.5725C17.3924 16.8741 16.8337 15.511 15.7509 15.616Z" fill="#87E64B"/>
</svg>
