<svg width="17" height="24" viewBox="0 0 16.9591 24" fill="none" xmlns="http://www.w3.org/2000/svg">
<g id="Mark">
<path id="Vector" d="M9.585 24C10.1778 24 10.6584 23.5194 10.6584 22.9266C10.6584 22.3337 10.1778 21.8531 9.585 21.8531C8.99216 21.8531 8.51157 22.3337 8.51157 22.9266C8.51157 23.5194 8.99216 24 9.585 24Z" fill="var(--fill-0, #87E64B)"/>
<path id="Vector_2" d="M15.7509 15.617L9.70311 16.2648C9.59249 16.2769 9.5353 16.1354 9.62343 16.0669L15.5418 11.4592C15.9262 11.1451 16.1709 10.6557 16.0659 10.1317C15.9609 9.32826 15.2971 8.8042 14.459 8.9092L8.02875 9.85044C7.91532 9.86731 7.85438 9.722 7.94532 9.65263L14.3193 4.78611C15.5774 3.80831 15.6815 1.88645 14.5293 0.768958C13.4812 -0.279157 11.804 -0.24447 10.7559 0.803646L0.48382 11.2501C0.0994487 11.6692 -0.0749247 12.2279 0.0300743 12.8223C0.204448 13.7654 1.14756 14.3945 2.09162 14.2201L7.62844 13.0904C7.74844 13.066 7.81407 13.2263 7.71 13.292L1.56662 17.2238C0.79788 17.7132 0.449133 18.586 0.692881 19.4597C0.937566 20.6128 2.09068 21.2766 3.20817 20.9972L12.3909 18.735C12.494 18.7097 12.57 18.8297 12.5034 18.9122L11.069 20.6822C10.6847 21.1716 11.3137 21.8353 11.8378 21.451L16.5543 17.5735C17.3924 16.8751 16.8337 15.512 15.7509 15.617Z" fill="var(--fill-0, #87E64B)"/>
</g>
</svg>
