<svg width="84" height="18" viewBox="0 0 83.9646 18.0383" fill="none" xmlns="http://www.w3.org/2000/svg">
<g id="Logotype">
<path id="Vector" d="M7.48963 3.4359C11.0868 3.4359 14.6024 5.55651 14.6024 10.2805C14.6024 10.6555 14.5818 11.2368 14.5405 11.6455C14.5311 11.7393 14.4514 11.8105 14.3568 11.8105H4.26747C4.56278 13.5018 5.74402 14.6024 7.59556 14.6024C8.82368 14.6024 9.60742 13.9236 10.034 13.1118C10.0874 13.0096 10.2037 12.9561 10.3162 12.9805L14.0886 13.8027C14.2039 13.828 14.2649 13.9517 14.218 14.0596C13.3358 16.0574 11.3296 18.0373 7.56931 18.0373C2.63061 18.0373 4.26273e-06 14.8161 4.26273e-06 10.7362C4.26273e-06 6.65619 2.73748 3.43497 7.48869 3.43497L7.48963 3.4359ZM10.3883 9.23335C10.2009 7.62274 9.12649 6.764 7.57025 6.764C5.53027 6.764 4.67153 7.81118 4.34903 9.23335H10.3883Z" fill="var(--fill-0, #FFF5ED)"/>
<path id="Vector_2" d="M15.8914 17.4233V4.04995C15.8914 3.94777 15.9739 3.86527 16.0761 3.86527H20.0014C20.1036 3.86527 20.1861 3.94777 20.1861 4.04995V5.63713C21.1254 4.16058 22.5214 3.4359 24.3195 3.4359C26.9501 3.4359 29.2047 5.234 29.2047 9.26053V17.4233C29.2047 17.5255 29.1222 17.608 29.0201 17.608H25.0948C24.9926 17.608 24.9101 17.5255 24.9101 17.4233V9.8774C24.9101 8.07929 23.9707 7.08555 22.602 7.08555C21.1254 7.08555 20.1861 8.0521 20.1861 10.2533V17.4233C20.1861 17.5255 20.1036 17.608 20.0014 17.608H16.0761C15.9739 17.608 15.8914 17.5255 15.8914 17.4233Z" fill="var(--fill-0, #FFF5ED)"/>
<path id="Vector_3" d="M29.4682 3.8653H33.6316C33.7131 3.8653 33.7844 3.91873 33.8088 3.99655L36.9362 14.3605L40.0637 3.99655C40.0871 3.91873 40.1593 3.8653 40.2409 3.8653H44.4043C44.5318 3.8653 44.6218 3.99186 44.5777 4.11279L39.789 17.4374C39.7525 17.5395 39.655 17.6089 39.5453 17.6089H34.3263C34.2175 17.6089 34.12 17.5405 34.0825 17.4374L29.2938 4.11279C29.2507 3.9928 29.3397 3.8653 29.4672 3.8653H29.4682Z" fill="var(--fill-0, #FFF5ED)"/>
<path id="Vector_4" d="M53.6855 17.4233V15.3261C53.0142 16.722 51.5114 18.0373 49.1761 18.0373C46.4649 18.0373 44.4521 16.3198 44.4521 13.9039C44.4521 11.354 46.1433 9.44803 49.8474 9.44803H51.9952C53.1764 9.44803 53.498 8.58929 53.3911 8.02585C53.2298 7.0593 52.3711 6.54931 51.1636 6.54931C49.6383 6.54931 48.7149 7.39211 48.5986 8.55273C48.5883 8.65866 48.4908 8.7346 48.3858 8.71679L44.7446 8.11023C44.6434 8.09335 44.574 7.99679 44.5927 7.89648C45.1862 4.7287 48.1899 3.4359 51.2724 3.4359C54.3548 3.4359 57.7682 4.18776 57.7682 9.87834V17.4242C57.7682 17.5264 57.6857 17.6089 57.5836 17.6089H53.873C53.7708 17.6089 53.6883 17.5264 53.6883 17.4242L53.6855 17.4233ZM50.438 14.9239C52.1555 14.9239 53.3367 13.6358 53.4708 12.0252H50.8674C49.2839 12.0252 48.7196 12.6693 48.7468 13.5552C48.7739 14.4945 49.5249 14.9239 50.438 14.9239Z" fill="var(--fill-0, #FFF5ED)"/>
<path id="Vector_5" d="M58.4104 7.11651V4.04997C58.4104 3.94779 58.4929 3.86529 58.5951 3.86529H60.1279C60.8395 3.86529 61.416 3.28873 61.416 2.57717V0.184694C61.416 0.0825076 61.4985 8.40634e-06 61.6007 8.40634e-06H65.0966C65.1988 8.40634e-06 65.2813 0.0825076 65.2813 0.184694V3.86529H68.1032C68.2053 3.86529 68.2878 3.94779 68.2878 4.04997V7.11651C68.2878 7.21869 68.2053 7.30119 68.1032 7.30119H65.2813V12.2671C65.2813 13.8852 66.6566 14.5443 68.0928 14.0343C68.1885 14.0005 68.2878 14.0727 68.2878 14.173V17.4083C68.2878 17.5274 68.2072 17.6324 68.0919 17.6595C67.7206 17.7477 67.206 17.8236 66.5975 17.8236C63.2694 17.8236 60.9876 16.6958 60.9876 11.8649V7.30213H58.5951C58.4929 7.30213 58.4104 7.21963 58.4104 7.11744V7.11651Z" fill="var(--fill-0, #FFF5ED)"/>
<path id="Vector_6" d="M83.9646 10.7371C83.9646 14.7636 81.1193 18.0383 76.4487 18.0383C71.7781 18.0383 68.9328 14.7636 68.9328 10.7371C68.9328 6.71055 71.7781 3.4359 76.4487 3.4359C81.1193 3.4359 83.9646 6.71055 83.9646 10.7371ZM79.6699 10.7371C79.6699 8.75054 78.5693 7.08649 76.4487 7.08649C74.3281 7.08649 73.2275 8.75054 73.2275 10.7371C73.2275 12.7236 74.3281 14.3877 76.4487 14.3877C78.5693 14.3877 79.6699 12.7236 79.6699 10.7371Z" fill="var(--fill-0, #FFF5ED)"/>
</g>
</svg>
