<svg preserveAspectRatio="none" width="100%" height="100%" overflow="visible" style="display: block;" viewBox="0 0 8.00001 12" fill="none" xmlns="http://www.w3.org/2000/svg">
<path id="Icon-color" d="M8 4.82471V5.66437C8 5.84839 7.85076 5.99757 7.66667 5.99757H7C6.8159 5.99757 6.66667 5.84839 6.66667 5.66437V5.48444C6.65055 4.81551 6.26573 4.21031 5.66667 3.91175C5.54667 3.84511 5.44 3.76514 5.33333 3.69184V9.6894C5.21988 11.0551 4.03502 12.0796 2.66667 11.9951C1.28871 12.0791 0.0997054 11.0391 0 9.66275C0.0997054 8.28639 1.28871 7.24644 2.66667 7.33036C3.13104 7.32939 3.58867 7.44146 4 7.65689V0.333198C4 0.149178 4.14924 0 4.33333 0H5C5.18409 0 5.33333 0.149178 5.33333 0.333198V0.446486C5.3194 1.12128 5.68862 1.74586 6.28667 2.05916C7.33812 2.57956 8.00247 3.6519 8 4.82471Z" fill="var(--fill-0, #191919)"/>
</svg>
