<svg preserveAspectRatio="none" width="100%" height="100%" overflow="visible" style="display: block;" viewBox="0 0 16 16" fill="none" xmlns="http://www.w3.org/2000/svg">
<g id="ico-/-24-/-arrows-/-chevron_down">
<path id="Icon-color" d="M8.48 10.52C8.38632 10.6138 8.25923 10.6665 8.12667 10.6667H7.87333C7.74106 10.6651 7.61448 10.6126 7.52 10.52L4.1 7.09333C4.0369 7.03074 4.0014 6.94555 4.0014 6.85667C4.0014 6.76779 4.0369 6.68259 4.1 6.62L4.57333 6.14667C4.63478 6.08396 4.71887 6.04862 4.80667 6.04862C4.89446 6.04862 4.97856 6.08396 5.04 6.14667L8 9.11333L10.96 6.14667C11.0226 6.08356 11.1078 6.04807 11.1967 6.04807C11.2855 6.04807 11.3707 6.08356 11.4333 6.14667L11.9 6.62C11.9631 6.68259 11.9986 6.76779 11.9986 6.85667C11.9986 6.94555 11.9631 7.03074 11.9 7.09333L8.48 10.52Z" fill="var(--fill-0, #191919)"/>
<g id="bounding_box:c2all">
</g>
</g>
</svg>
