<svg width="105" height="24" viewBox="0 0 105 24" fill="none" xmlns="http://www.w3.org/2000/svg">
  <g clip-path="url(#clip0_530_7545)">
    <path d="M28.4896 4.6943C32.0868 4.6943 35.6024 6.8149 35.6024 11.5389C35.6024 11.9139 35.5817 12.4952 35.5405 12.9039C35.5311 12.9977 35.4514 13.0689 35.3567 13.0689H25.2675C25.5628 14.7601 26.744 15.8608 28.5956 15.8608C29.8237 15.8608 30.6074 15.182 31.034 14.3701C31.0874 14.268 31.2037 14.2145 31.3162 14.2389L35.0886 15.0611C35.2039 15.0864 35.2649 15.2101 35.218 15.318C34.3358 17.3157 32.3296 19.2957 28.5693 19.2957C23.6306 19.2957 21 16.0745 21 11.9945C21 7.91458 23.7375 4.69336 28.4887 4.69336L28.4896 4.6943ZM31.3883 10.4917C31.2008 8.88113 30.1265 8.02239 28.5702 8.02239C26.5303 8.02239 25.6715 9.06957 25.349 10.4917H31.3883Z" fill="#FFF5ED"/>
    <path d="M36.8914 18.6817V5.30839C36.8914 5.20621 36.9739 5.12371 37.076 5.12371H41.0013C41.1035 5.12371 41.186 5.20621 41.186 5.30839V6.89557C42.1254 5.41902 43.5213 4.69434 45.3194 4.69434C47.95 4.69434 50.2047 6.49244 50.2047 10.519V18.6817C50.2047 18.7839 50.1222 18.8664 50.02 18.8664H46.0947C45.9925 18.8664 45.91 18.7839 45.91 18.6817V11.1358C45.91 9.33773 44.9707 8.34399 43.6019 8.34399C42.1254 8.34399 41.186 9.31054 41.186 11.5118V18.6817C41.186 18.7839 41.1035 18.8664 41.0013 18.8664H37.076C36.9739 18.8664 36.8914 18.7839 36.8914 18.6817Z" fill="#FFF5ED"/>
    <path d="M50.4681 5.12354H54.6315C54.7131 5.12354 54.7843 5.17697 54.8087 5.25478L57.9361 15.6188L61.0636 5.25478C61.0871 5.17697 61.1592 5.12354 61.2408 5.12354H65.4042C65.5317 5.12354 65.6217 5.2501 65.5776 5.37103L60.7889 18.6956C60.7524 18.7978 60.6549 18.8672 60.5452 18.8672H55.3262C55.2174 18.8672 55.1199 18.7987 55.0824 18.6956L50.2937 5.37103C50.2506 5.25103 50.3396 5.12354 50.4671 5.12354H50.4681Z" fill="#FFF5ED"/>
    <path d="M74.6855 18.6817V16.5845C74.0143 17.9805 72.5115 19.2958 70.1762 19.2958C67.4649 19.2958 65.4521 17.5783 65.4521 15.1624C65.4521 12.6124 67.1434 10.7065 70.8474 10.7065H72.9952C74.1764 10.7065 74.498 9.84773 74.3911 9.2843C74.2299 8.31774 73.3711 7.80775 72.1637 7.80775C70.6384 7.80775 69.7149 8.65055 69.5987 9.81117C69.5884 9.9171 69.4909 9.99304 69.3859 9.97523L65.7446 9.36867C65.6434 9.35179 65.574 9.25523 65.5928 9.15492C66.1862 5.98714 69.1899 4.69434 72.2724 4.69434C75.3549 4.69434 78.7683 5.4462 78.7683 11.1368V18.6826C78.7683 18.7848 78.6858 18.8673 78.5836 18.8673H74.873C74.7708 18.8673 74.6883 18.7848 74.6883 18.6826L74.6855 18.6817ZM71.438 16.1824C73.1555 16.1824 74.3368 14.8942 74.4708 13.2836H71.8674C70.284 13.2836 69.7196 13.9277 69.7468 14.8136C69.774 15.753 70.5249 16.1824 71.438 16.1824Z" fill="#FFF5ED"/>
    <path d="M79.4104 8.3748V5.30826C79.4104 5.20608 79.4929 5.12358 79.5951 5.12358H81.1279C81.8394 5.12358 82.416 4.54702 82.416 3.83547V1.44299C82.416 1.3408 82.4985 1.2583 82.6007 1.2583H86.0966C86.1988 1.2583 86.2813 1.3408 86.2813 1.44299V5.12358H89.1031C89.2053 5.12358 89.2878 5.20608 89.2878 5.30826V8.3748C89.2878 8.47699 89.2053 8.55949 89.1031 8.55949H86.2813V13.5254C86.2813 15.1435 87.6566 15.8025 89.0928 15.2926C89.1884 15.2588 89.2878 15.331 89.2878 15.4313V18.6666C89.2878 18.7856 89.2072 18.8906 89.0919 18.9178C88.7206 19.006 88.2059 19.0819 87.5975 19.0819C84.2694 19.0819 81.9876 17.9541 81.9876 13.1232V8.56042H79.5951C79.4929 8.56042 79.4104 8.47792 79.4104 8.37574V8.3748Z" fill="#FFF5ED"/>
    <path d="M104.965 11.9955C104.965 16.022 102.119 19.2967 97.4487 19.2967C92.7781 19.2967 89.9329 16.022 89.9329 11.9955C89.9329 7.96899 92.7781 4.69434 97.4487 4.69434C102.119 4.69434 104.965 7.96899 104.965 11.9955ZM100.67 11.9955C100.67 10.009 99.5693 8.34493 97.4487 8.34493C95.3281 8.34493 94.2275 10.009 94.2275 11.9955C94.2275 13.9821 95.3281 15.6461 97.4487 15.6461C99.5693 15.6461 100.67 13.9821 100.67 11.9955Z" fill="#FFF5ED"/>
    <path d="M9.5849 23.9989C10.1777 23.9989 10.6583 23.5183 10.6583 22.9255C10.6583 22.3326 10.1777 21.8521 9.5849 21.8521C8.99206 21.8521 8.51147 22.3326 8.51147 22.9255C8.51147 23.5183 8.99206 23.9989 9.5849 23.9989Z" fill="#87E64B"/>
    <path d="M15.7509 15.616L9.70311 16.2638C9.59249 16.276 9.5353 16.1344 9.62343 16.066L15.5418 11.4582C15.9262 11.1441 16.1709 10.6548 16.0659 10.1307C15.9609 9.32728 15.2971 8.80322 14.459 8.90822L8.02875 9.84946C7.91532 9.86634 7.85438 9.72103 7.94532 9.65165L14.3193 4.78513C15.5774 3.80733 15.6815 1.88547 14.5293 0.767982C13.4812 -0.280134 11.804 -0.245447 10.7559 0.802669L0.48382 11.2491C0.0994487 11.6682 -0.0749247 12.2269 0.0300743 12.8213C0.204448 13.7644 1.14756 14.3935 2.09162 14.2191L7.62844 13.0894C7.74844 13.0651 7.81407 13.2254 7.71 13.291L1.56662 17.2228C0.79788 17.7122 0.449133 18.585 0.692881 19.4588C0.937566 20.6119 2.09068 21.2756 3.20817 20.9962L12.3909 18.7341C12.494 18.7088 12.57 18.8288 12.5034 18.9113L11.069 20.6812C10.6847 21.1706 11.3137 21.8344 11.8378 21.45L16.5543 17.5725C17.3924 16.8741 16.8337 15.511 15.7509 15.616Z" fill="#87E64B"/>
  </g>
  <defs>
    <clipPath id="clip0_530_7545">
      <rect width="105" height="24" fill="white"/>
    </clipPath>
  </defs>
</svg>
